<svg xmlns="http://www.w3.org/2000/svg" viewBox="0 0 512 512">
  <rect width="512" height="512" rx="112" fill="#0f766e"/>
  <path fill="#e9f7f4" d="M143 302h226c16 0 29 13 29 29v36c0 9-7 16-16 16h-24c-8 0-15-6-16-14l-3-16H173l-3 16c-1 8-8 14-16 14h-24c-9 0-16-7-16-16v-36c0-16 13-29 29-29Z"/>
  <path fill="#ffffff" d="m165 172-31 87h244l-31-87c-6-17-22-28-40-28H205c-18 0-34 11-40 28Zm39 18h104c9 0 17 6 20 15l14 39H170l14-39c3-9 11-15 20-15Z"/>
  <circle cx="177" cy="340" r="22" fill="#0f766e"/>
  <circle cx="335" cy="340" r="22" fill="#0f766e"/>
  <path fill="#9bd8d0" d="M230 104h52c8 0 14 6 14 14s-6 14-14 14h-52c-8 0-14-6-14-14s6-14 14-14Z"/>
</svg>
